# xmcd CD database file
#
# Track frame offsets:
#	150
#	11244
#	19961
#	28581
#	39016
#	48533
#	58818
#	65802
#	77368
#	87803
#	98456
#	110107
#	118329
#	134313
#	146920
#	156431
#	168532
#	180826
#	191040
#	199519
#	211938
#	221779
#	228571
#	246731
#	260907
#	270750
#	282586
#	290594
#	301851
#	311139
#	317316
#	327173
#	336434
#
# Disc length: 4593 seconds
#
# Revision: 0
# Processed by: cddbd v1.5.2PL0 Copyright (c) Steve Scherf et al.
# Submitted via: CDex 1.51
#
DISCID=f711ef21
DTITLE=Charlie Rich - The Complete Sun Masters Disc 3
DYEAR=2009
DGENRE=Country
TTITLE0=Little Woman Friend Of Mine
TTITLE1=Time's A-Wasting
TTITLE2=You Made A Hit
TTITLE3=Yes, Ma'am
TTITLE4=Stop Thief
TTITLE5=What's My Name?
TTITLE6=How Blue Can You Be?
TTITLE7=I Said Baby
TTITLE8=Cloud Nine
TTITLE9=Ain't It A Shame?
TTITLE10=The Wedding Is Over
TTITLE11=Unsuspecting Me
TTITLE12=If You Knew
TTITLE13=Somehow We'll Find A Way
TTITLE14=Every Day (And Every Night)
TTITLE15=There Won't Be Anymore
TTITLE16=Closed For Repair
TTITLE17=(We Belong To) Each Other
TTITLE18=Untitled Instrumental
TTITLE19=Long Way To Tennessee
TTITLE20=Every Day (That You're Away From Me)
TTITLE21=Baby, I Need You
TTITLE22=When
TTITLE23=My Mountain Dew
TTITLE24=Graveyardville
TTITLE25=Ballad Of Billy Joe (Undubbed)
TTITLE26=Since You Said Goodbye
TTITLE27=Too Many Tears
TTITLE28=Little By Little
TTITLE29=Life Is A Flower
TTITLE30=I'm Making Plans
TTITLE31=Stop Fakin' Your Love (Alternate)
TTITLE32=Sail Away
EXTD=YEAR: 2009
EXTT0=
EXTT1=
EXTT2=
EXTT3=
EXTT4=
EXTT5=
EXTT6=
EXTT7=
EXTT8=
EXTT9=
EXTT10=
EXTT11=
EXTT12=
EXTT13=
EXTT14=
EXTT15=
EXTT16=
EXTT17=
EXTT18=
EXTT19=
EXTT20=
EXTT21=
EXTT22=
EXTT23=
EXTT24=
EXTT25=
EXTT26=
EXTT27=
EXTT28=
EXTT29=
EXTT30=
EXTT31=
EXTT32=
PLAYORDER=
